# File created by Blade
# Date/Time:  Wed Apr 08 17:04:22 2015
# Frame Rate: 120.000 fps
#------------------------------------------------------
:FULLY-SPECIFIED
:DEGREES
1252
root 3.787879 35.895961 4.428055 -143.124454 -77.512559 172.640269
Spine -30.561686 -15.229928 -1.678635
Head 52.156249 -20.078563 -21.938824
LeftShoulder 13.627871 1.806116 26.591726
LeftArm 107.392061 42.489900 -34.765898
LeftForeArm -2.799070 0.000000 93.739021
LeftHand -7.774020 -0.000000 -15.821649
LeftHandThumb1 -26.253704 0.000000 33.147579
RightShoulder -16.412694 -72.761443 -15.506244
RightArm 44.539168 -34.000979 31.599201
RightForeArm 19.957601 0.000000 93.229396
RightHand -1.969452 -0.000000 34.115122
RightHandThumb1 -24.326973 -0.000000 -32.862282
LeftUpLeg -33.712347 11.346730 -5.669520
LeftLeg 20.620285 -0.000000 -0.000000
LeftFoot -18.623882 11.733802 -16.022489
LeftToeBase 8.852037 -0.000000 -0.000000
RightUpLeg -36.928898 -5.674698 -10.573094
RightLeg 17.239075 -0.000000 -0.000000
RightFoot -9.861855 4.834208 20.155578
RightToeBase 14.062661 -0.000000 -0.000000
1253
root 3.774978 35.895357 4.443696 -143.042956 -77.500513 172.609959
Spine -30.728205 -15.215942 -1.538180
Head 52.091214 -20.030202 -21.952437
LeftShoulder 13.582958 1.756691 26.564361
LeftArm 107.328424 42.552815 -34.858064
LeftForeArm -2.857067 -0.000000 93.749761
LeftHand -7.766033 -0.000000 -15.793833
LeftHandThumb1 -26.253704 0.000000 33.147579
RightShoulder -16.250994 -72.675390 -15.799098
RightArm 44.073934 -33.492370 31.892233
RightForeArm 21.283987 -0.000000 94.418144
RightHand -1.869480 0.000000 33.930708
RightHandThumb1 -24.326973 -0.000000 -32.862282
LeftUpLeg -33.737838 11.343792 -5.722178
LeftLeg 20.600445 -0.000000 -0.000000
LeftFoot -18.640825 11.743268 -15.993266
LeftToeBase 8.857778 -0.000000 -0.000000
RightUpLeg -36.964200 -5.684599 -10.607569
RightLeg 17.239284 -0.000000 -0.000000
RightFoot -9.867639 4.815443 20.201693
RightToeBase 14.091465 -0.000000 -0.000000
1254
root 3.764128 35.895224 4.455611 -142.931547 -77.503922 172.563472
Spine -30.909128 -15.212928 -1.406588
Head 52.024937 -19.981442 -21.938370
LeftShoulder 13.530716 1.740506 26.546973
LeftArm 107.308964 42.574452 -34.907028
LeftForeArm -2.910633 -0.000000 93.765136
LeftHand -7.764542 -0.000000 -15.767262
LeftHandThumb1 -26.253704 0.000000 33.147579
RightShoulder -16.064126 -72.596968 -16.100003
RightArm 43.613250 -32.962540 32.180498
RightForeArm 22.454941 -0.000000 95.531889
RightHand -1.806077 -0.000000 33.869901
RightHandThumb1 -24.326973 -0.000000 -32.862282
LeftUpLeg -33.786656 11.332914 -5.765424
LeftLeg 20.595925 -0.000000 -0.000000
LeftFoot -18.648227 11.724082 -15.993807
LeftToeBase 8.845884 -0.000000 -0.000000
RightUpLeg -37.009264 -5.685369 -10.639555
RightLeg 17.236524 -0.000000 -0.000000
RightFoot -9.896472 4.761606 20.233518
RightToeBase 14.159716 -0.000000 -0.000000
1255
root 3.755034 35.895540 4.464853 -142.735824 -77.542533 172.452005
Spine -31.096278 -15.232519 -1.280419
Head 51.944317 -19.955296 -21.909938
LeftShoulder 13.475046 1.733639 26.546466
LeftArm 107.328494 42.589381 -34.930478
LeftForeArm -2.906986 -0.000000 93.790214
LeftHand -7.786912 -0.000000 -15.741577
LeftHandThumb1 -26.253704 0.000000 33.147579
RightShoulder -15.919178 -72.518486 -16.326906
RightArm 43.120416 -32.430437 32.472716
RightForeArm 23.519752 -0.000000 96.599544
RightHand -1.734318 -0.000000 33.869048
RightHandThumb1 -24.326973 -0.000000 -32.862282
LeftUpLeg -33.868854 11.280693 -5.796306
LeftLeg 20.607072 -0.000000 -0.000000
LeftFoot -18.641662 11.709691 -15.999901
LeftToeBase 8.813699 -0.000000 -0.000000
RightUpLeg -37.069498 -5.694616 -10.667721
RightLeg 17.243444 -0.000000 -0.000000
RightFoot -9.936659 4.676922 20.244755
RightToeBase 14.148850 -0.000000 -0.000000
1256
root 3.745456 35.894636 4.473974 -142.559757 -77.598668 172.320001
Spine -31.241707 -15.269894 -1.158318
Head 51.870602 -19.913437 -21.885522
LeftShoulder 13.438040 1.695777 26.544401
LeftArm 107.283156 42.626728 -34.998393
LeftForeArm -2.903592 0.000000 93.823562
LeftHand -7.794642 -0.000000 -15.739036
LeftHandThumb1 -26.253704 0.000000 33.147579
RightShoulder -15.731311 -72.500751 -16.592809
RightArm 42.716201 -31.859146 32.725472
RightForeArm 24.601557 -0.000000 97.596243
RightHand -1.686087 -0.000000 33.839649
RightHandThumb1 -24.326973 -0.000000 -32.862282
LeftUpLeg -33.913127 11.205429 -5.807155
LeftLeg 20.626833 -0.000000 -0.000000
LeftFoot -18.648360 11.712288 -15.984345
LeftToeBase 8.795099 -0.000000 -0.000000
RightUpLeg -37.088860 -5.725890 -10.686327
RightLeg 17.257608 -0.000000 -0.000000
RightFoot -9.991895 4.610051 20.245025
RightToeBase 14.157620 -0.000000 -0.000000
